<svg width="15" height="16" viewBox="0 0 15 16" fill="none" xmlns="http://www.w3.org/2000/svg">
<path d="M10.6086 1.2715C10.7237 1.45561 10.7848 1.66837 10.7848 1.8855V14.1142C10.7848 14.321 10.7295 14.524 10.6245 14.7022C10.5196 14.8804 10.3688 15.0272 10.188 15.1275C10.0071 15.2277 9.8027 15.2777 9.59598 15.2723C9.38926 15.2669 9.18776 15.2062 9.01241 15.0966L4.32998 12.17H1.84904C1.4189 12.17 1.00638 11.9991 0.702229 11.695C0.398075 11.3908 0.227203 10.9783 0.227203 10.5482V5.45155C0.227203 5.02141 0.398075 4.60889 0.702229 4.30474C1.00638 4.00058 1.4189 3.82971 1.84904 3.82971H4.32998L9.01241 0.903311C9.14141 0.822665 9.28504 0.768221 9.43508 0.743089C9.58513 0.717956 9.73866 0.722626 9.8869 0.756833C10.0351 0.79104 10.1752 0.854114 10.2991 0.942452C10.4229 1.03079 10.5282 1.14266 10.6088 1.27168L10.6086 1.2715ZM12.6597 3.54753C12.7786 3.46505 12.9253 3.43315 13.0677 3.45886C13.21 3.48457 13.3363 3.56578 13.4188 3.68462C14.2999 4.95045 14.7724 6.45569 14.7728 7.99799C14.7732 9.5403 14.3014 11.0458 13.4208 12.312C13.3372 12.4279 13.2115 12.5064 13.0706 12.5306C12.9298 12.5547 12.7851 12.5226 12.6676 12.4412C12.5502 12.3598 12.4694 12.2355 12.4426 12.0951C12.4158 11.9548 12.4452 11.8095 12.5245 11.6905C13.2784 10.6069 13.6823 9.31838 13.682 7.9983C13.6817 6.67821 13.2771 5.38988 12.5226 4.30663C12.4402 4.18778 12.4083 4.04104 12.434 3.89868C12.4597 3.75633 12.5409 3.63001 12.6597 3.54753Z" fill="white" fill-opacity="0.6"/>
</svg>
