<svg width="21" height="20" viewBox="0 0 21 20" fill="none" xmlns="http://www.w3.org/2000/svg">
<path d="M10.6446 2.14231C10.6052 2.10458 10.5517 2.08338 10.496 2.08337H10.4955C10.4678 2.08343 10.4405 2.08873 10.4149 2.09895C10.3894 2.10917 10.3662 2.12413 10.3467 2.14295L4.31257 7.9733C3.52282 8.73007 3.05646 9.74188 3.0048 10.8107C2.95314 11.8794 3.3199 12.9282 4.03326 13.7516C4.74663 14.575 5.75523 15.1137 6.8616 15.2623C7.96796 15.411 9.09242 15.1587 10.0148 14.5551L8.64995 17.6368C8.63374 17.6734 8.6292 17.7138 8.63692 17.7528C8.64463 17.7919 8.66424 17.8279 8.69328 17.8563C8.72232 17.8847 8.75949 17.9042 8.8001 17.9124C8.84071 17.9206 8.88295 17.9171 8.92148 17.9023C9.93481 17.5122 11.0664 17.5122 12.0797 17.9023C12.1182 17.9171 12.1604 17.9206 12.201 17.9124C12.2417 17.9042 12.2788 17.8846 12.3078 17.8563C12.3369 17.8279 12.3565 17.7919 12.3642 17.7528C12.3719 17.7138 12.3674 17.6734 12.3512 17.6368L10.9589 14.493C11.8224 15.0678 12.8694 15.3336 13.9168 15.244C14.9643 15.1544 15.9455 14.7152 16.6891 14.003C18.437 12.3291 18.437 9.60494 16.6891 7.93037L10.6446 2.14231Z" fill="white" fill-opacity="0.6"/>
</svg>
