<svg width="17" height="16" viewBox="0 0 17 16" fill="none" xmlns="http://www.w3.org/2000/svg">
<path d="M15.8738 7.46437C16.1772 7.16403 16.2843 6.72324 16.1534 6.31349C16.0222 5.90374 15.6805 5.61124 15.2607 5.54917L11.5279 4.99834C11.3689 4.97482 11.2315 4.87356 11.1605 4.72715L9.49169 1.29238C9.30431 0.906458 8.92399 0.666626 8.50014 0.666626C8.07661 0.666626 7.69629 0.906458 7.50891 1.29238L5.83977 4.72747C5.76876 4.87387 5.63108 4.97514 5.4721 4.99865L1.7393 5.54948C1.31978 5.61124 0.977739 5.90405 0.846541 6.31381C0.715652 6.72356 0.822771 7.16435 1.12622 7.46469L3.82704 10.1383C3.94219 10.2524 3.99497 10.4167 3.96781 10.5772L3.33065 14.3524C3.27416 14.6847 3.35998 15.0079 3.57175 15.2628C3.90082 15.66 4.47531 15.7811 4.93466 15.5359L8.27294 13.7533C8.41247 13.679 8.58812 13.6796 8.72735 13.7533L12.0659 15.5359C12.2283 15.6227 12.4015 15.6666 12.5802 15.6666C12.9065 15.6666 13.2158 15.5193 13.4285 15.2628C13.6406 15.0079 13.7261 14.6841 13.6696 14.3524L13.0322 10.5772C13.005 10.4163 13.0578 10.2524 13.1729 10.1383L15.8738 7.46437Z" fill="white" fill-opacity="0.6"/>
</svg>
