<svg width="17" height="16" viewBox="0 0 17 16" fill="none" xmlns="http://www.w3.org/2000/svg">
<path d="M0.336987 6.41841L7.42565 0.860251C8.03129 0.379916 8.98003 0.379916 9.58566 0.860251L16.6206 6.42139C16.8623 6.61233 16.9011 6.96139 16.7131 7.20007C16.5252 7.43874 16.1731 7.48051 15.9344 7.29256L15.7077 7.11355V13.8352C15.7077 14.787 14.7202 15.5 13.8371 15.5H2.73866C1.86749 15.5 1.27975 14.8317 1.27975 13.8352V7.09565L1.02915 7.29256C0.927709 7.37311 0.808371 7.41189 0.68605 7.41189C0.521961 7.41189 0.357872 7.34029 0.247484 7.20007C0.0535603 6.95841 0.0983105 6.60935 0.336987 6.41841ZM6.82598 13.2296V14.3872H7.93582H9.04566H10.1555V13.2296V11.2814C10.1555 10.637 9.6334 9.94185 8.49074 9.94185C7.3451 9.94185 6.82598 10.637 6.82598 11.2814V13.2296Z" fill="#F3B867"/>
</svg>
