<svg width="15" height="16" viewBox="0 0 15 16" fill="none" xmlns="http://www.w3.org/2000/svg">
<path fill-rule="evenodd" clip-rule="evenodd" d="M12.3525 15.2727H10.2363C8.89928 15.2727 7.81611 14.1885 7.81611 12.8526V8.31622H12.3525C13.6884 8.31622 14.7726 9.40049 14.7726 10.7364V12.8526C14.7726 14.1885 13.6884 15.2727 12.3525 15.2727ZM2.64664 15.2727H4.76432C6.1004 15.2727 7.18374 14.1885 7.18374 12.8526V8.31622H2.64664C1.31056 8.31622 0.227219 9.40049 0.227219 10.7364V12.8526C0.227219 14.1885 1.31056 15.2727 2.64664 15.2727ZM12.3525 0.727321H10.2363C8.89928 0.727321 7.81611 1.81066 7.81611 3.14674V7.68384H12.3525C13.6884 7.68384 14.7726 6.6005 14.7726 5.26442V3.14674C14.7726 1.81066 13.6884 0.727321 12.3525 0.727321ZM12.1722 1.99214C12.9102 1.99307 13.507 2.5899 13.5079 3.32786V5.08238C13.5079 5.82035 12.9102 6.4181 12.1722 6.41902H9.08104V3.32786C9.08196 2.5899 9.68064 1.99214 10.4186 1.99214H12.1722ZM2.64669 0.727295H4.76438C6.10046 0.727295 7.18379 1.81063 7.18379 3.14671V7.68382H2.64669C1.31061 7.68382 0.22727 6.60048 0.22727 5.2644V3.14671C0.22727 1.81063 1.31061 0.727295 2.64669 0.727295Z" fill="white" fill-opacity="0.6"/>
</svg>
