<svg width="21" height="20" viewBox="0 0 21 20" fill="none" xmlns="http://www.w3.org/2000/svg">
<path fill-rule="evenodd" clip-rule="evenodd" d="M6.84765 15.7783C6.9754 15.9759 7.17501 16.1182 7.41454 16.1734L9.96951 16.7424L9.01938 17.2324C8.77985 17.3589 8.50839 17.4222 8.23692 17.4222C7.58221 17.4222 6.98339 17.0666 6.68797 16.4816L2.20878 7.68552C1.9932 7.27456 1.96127 6.80828 2.10498 6.37361C2.2487 5.93894 2.55211 5.5833 2.96729 5.37782L2.97527 5.36992L8.18901 2.7619C8.73993 2.4853 9.37069 2.53271 9.86572 2.82513C9.64216 2.94367 9.4665 3.15706 9.41061 3.41786L6.72789 15.0986C6.67998 15.3357 6.71991 15.5728 6.84765 15.7783ZM3.60776 7.34945C3.60776 7.64292 3.84443 7.8796 4.1379 7.8796C4.43138 7.8796 4.66805 7.64292 4.66805 7.34945C4.66805 7.05598 4.43138 6.81931 4.1379 6.81931C3.84443 6.81931 3.60776 7.05598 3.60776 7.34945Z" fill="white" fill-opacity="0.6"/>
<path fill-rule="evenodd" clip-rule="evenodd" d="M10.0292 3.74708C10.1347 3.2979 10.597 3.02209 11.0594 3.13241L18.3273 4.82667C18.7816 4.92912 19.0655 5.37829 18.96 5.81959L16.3725 16.6392C16.2264 17.1829 15.6668 17.5218 15.0989 17.3957L7.81477 15.796C7.46597 15.7093 7.25507 15.3784 7.33618 15.0395L10.0292 3.74708ZM14.2133 15.8839C14.2418 16.1691 14.4985 16.3878 14.7932 16.3593C15.0879 16.3308 15.297 16.0741 15.2685 15.7793C15.24 15.4941 14.9833 15.2755 14.6886 15.304C14.4034 15.3325 14.1848 15.5892 14.2133 15.8839ZM13.9318 12.1134C14.5418 12.0574 15.0704 11.6253 15.2087 11.0172C15.29 10.6892 15.3388 10.2971 15.046 9.68898C14.8102 9.22489 13.7854 7.86465 13.4763 7.45658C13.4031 7.35256 13.2567 7.32056 13.1429 7.37657C13.1388 7.37657 13.1368 7.37857 13.1347 7.38057C13.1327 7.38257 13.1307 7.38457 13.1266 7.38457C12.4028 7.76063 11.134 8.43275 10.7436 8.72881C10.2068 9.14488 10.0767 9.52095 10.0035 9.849C9.92216 10.2171 9.98723 10.6011 10.1987 10.9212C10.2394 10.9932 10.2882 11.0572 10.3451 11.1132C10.89 11.7053 11.8253 11.7533 12.4272 11.2092C12.6712 11.8094 13.2811 12.1774 13.9318 12.1134ZM11.5572 5.1755C11.5282 4.88514 11.2669 4.6722 10.9765 4.70124C10.6861 4.73027 10.4732 4.98192 10.5022 5.28197C10.5313 5.57233 10.7926 5.78527 11.083 5.75623C11.3733 5.72719 11.5863 5.46586 11.5572 5.1755Z" fill="white" fill-opacity="0.6"/>
</svg>
