<svg width="21" height="20" viewBox="0 0 21 20" fill="none" xmlns="http://www.w3.org/2000/svg">
<path d="M7.41666 4.41671C7.41666 3.62504 7.16666 3.37504 6.54166 3.33337H3.04166C2.45833 3.33337 2.16666 3.66671 2.16666 4.33337V15.8334C2.16666 16.2084 2.20833 16.5417 2.54166 16.6667H7.04166C7.41666 16.5 7.41666 16.125 7.41666 15.7084V4.41671ZM3.5 4.45837H6.45833C6.125 5.16671 5.66666 5.45837 5.08333 5.54171C4.29166 5.66671 3.66666 5.37504 3.16666 4.50004C3.33333 4.50004 3.41666 4.45837 3.5 4.45837ZM3.20833 15.625C3.70833 14.2917 5.83333 14.2084 6.41666 15.625H3.20833ZM6.375 9.08337C5.875 10 5.58333 10.9584 5.54166 12C5.54166 12.4584 5.20833 12.2917 5 12.2917C4 12.3334 3.95833 12.25 4.20833 11.125C4.41666 10.2917 4.83333 9.62504 5.33333 9.00004C4.875 9.12504 4.29166 8.50004 3.95833 9.45837C3.875 9.66671 3.45833 9.54171 3.25 9.50004C3 9.45837 3.08333 9.16671 3.08333 9.00004C3.04166 7.83337 3.04166 7.83337 4.04166 7.83337H5.70833C6.45833 7.83337 6.75 8.37504 6.375 9.08337ZM13.125 4.41671C13.125 3.62504 12.875 3.37504 12.25 3.33337H8.70833C8.125 3.33337 7.83333 3.66671 7.83333 4.33337V15.7917C7.83333 16.1667 7.875 16.5 8.20833 16.625H12.7083C13.0833 16.4584 13.0833 16.0834 13.0833 15.6667C13.125 11.9584 13.125 8.16671 13.125 4.41671ZM9.16666 4.45837H12.1667C11.8333 5.16671 11.375 5.45837 10.7917 5.54171C10 5.66671 9.375 5.37504 8.875 4.50004C9.04166 4.50004 9.125 4.45837 9.16666 4.45837ZM8.91666 15.625C9.41666 14.2917 11.5417 14.2084 12.125 15.625H8.91666ZM12.0833 9.08337C11.5833 10 11.2917 10.9584 11.25 12C11.25 12.4584 10.9167 12.2917 10.7083 12.2917C9.70833 12.3334 9.66666 12.25 9.91666 11.125C10.125 10.2917 10.5417 9.62504 11.0417 9.00004C10.5833 9.12504 10 8.50004 9.66666 9.45837C9.58333 9.66671 9.16666 9.54171 8.95833 9.50004C8.70833 9.41671 8.83333 9.16671 8.83333 8.95837C8.79166 7.79171 8.79166 7.79171 9.79167 7.79171H11.4583C12.1667 7.83337 12.4583 8.37504 12.0833 9.08337ZM18.8333 4.41671C18.8333 3.62504 18.5833 3.33337 17.9583 3.33337H14.4167C13.8333 3.33337 13.5417 3.66671 13.5417 4.33337V15.7917C13.5417 16.1667 13.5833 16.5 13.9167 16.625H18.4167C18.7917 16.4584 18.7917 16.0834 18.7917 15.6667C18.8333 11.9584 18.8333 8.16671 18.8333 4.41671ZM14.875 4.45837H17.8333C17.5 5.16671 17.0417 5.45837 16.4583 5.54171C15.6667 5.66671 15.0417 5.37504 14.5417 4.50004C14.7083 4.50004 14.7917 4.45837 14.875 4.45837ZM14.625 15.625C15.125 14.2917 17.25 14.2084 17.8333 15.625H14.625ZM17.75 9.08337C17.25 10 16.9583 10.9584 16.9167 12C16.9167 12.4584 16.5833 12.2917 16.375 12.2917C15.375 12.3334 15.3333 12.25 15.5833 11.125C15.7917 10.2917 16.2083 9.62504 16.7083 9.00004C16.25 9.12504 15.6667 8.50004 15.3333 9.45837C15.25 9.66671 14.8333 9.54171 14.625 9.50004C14.375 9.45837 14.5 9.16671 14.4583 9.00004C14.4167 7.83337 14.4167 7.83337 15.4167 7.83337H17.0833C17.875 7.83337 18.1667 8.37504 17.75 9.08337Z" fill="white" fill-opacity="0.6"/>
</svg>
