<svg width="21" height="20" viewBox="0 0 21 20" fill="none" xmlns="http://www.w3.org/2000/svg">
<path opacity="0.9" fill-rule="evenodd" clip-rule="evenodd" d="M5.4986 5.31309C6.17476 4.4984 7.03201 3.85061 8.00745 3.4375L7.84956 3.73996C7.74252 3.92346 7.79203 4.16321 7.96285 4.27571L10.1296 5.56483C10.3401 5.67871 10.6827 5.67687 10.8914 5.56483L13.0546 4.27709C13.2259 4.16321 13.2736 3.92346 13.1666 3.7418L13.0069 3.4375C14.0055 3.86075 14.8806 4.52883 15.5635 5.36934L15.3859 5.33522C15.1835 5.28589 14.9796 5.40853 14.9288 5.61232L14.4136 8.14124C14.3739 8.38283 14.4796 8.71941 14.6491 8.88954L16.5028 10.619C16.6607 10.7531 16.8962 10.7264 17.0309 10.5627L17.0625 10.5286C16.9403 11.6259 16.5683 12.6426 16.0046 13.5181L15.914 12.9095C15.8926 12.697 15.7129 12.5356 15.5108 12.5527L13.0301 12.8722C12.7964 12.9114 12.5234 13.1258 12.4226 13.3448L11.444 15.7192C11.3736 15.9166 11.4735 16.1374 11.6661 16.2172L12.0181 16.3841C11.5346 16.5012 11.0292 16.5625 10.5096 16.5625C9.9521 16.5625 9.41063 16.4915 8.89414 16.3569L9.22464 16.2006C9.41732 16.1203 9.51767 15.899 9.4472 15.7022L8.46819 13.3277C8.36784 13.1087 8.09443 12.8943 7.86116 12.8551L5.37862 12.5356C5.17613 12.5181 4.99683 12.6799 4.97542 12.8925L4.90807 13.3466C4.37195 12.4558 4.02807 11.4281 3.93753 10.3248L4.09364 10.4949C4.22834 10.6563 4.46383 10.6835 4.62172 10.5512L6.47582 8.8213C6.64353 8.65117 6.75057 8.3146 6.71088 8.073L6.19439 5.54593C6.14354 5.34168 5.93793 5.2195 5.73722 5.26883L5.4986 5.31309ZM9.73349 7.28185C9.89805 7.15759 10.1636 7.15453 10.3311 7.28185L12.1694 8.67143C12.3335 8.79569 12.4173 9.05733 12.3537 9.26209L11.6505 11.5105C11.5874 11.7118 11.3744 11.875 11.1682 11.875H8.89515C8.69187 11.875 8.47639 11.7149 8.41242 11.5105L7.70917 9.26209C7.64562 9.06039 7.72643 8.79744 7.89393 8.67143L9.73349 7.28185ZM10.4998 17.5C14.6414 17.5 18 14.1418 18 10.0002C18 5.8582 14.6414 2.5 10.4998 2.5C6.35823 2.5 3.00003 5.8582 3.00003 10.0002C3.00003 14.1418 6.35823 17.5 10.4998 17.5Z" fill="white" fill-opacity="0.6"/>
</svg>
