<svg width="21" height="20" viewBox="0 0 21 20" fill="none" xmlns="http://www.w3.org/2000/svg">
<path d="M11.3355 3.47614C11.3963 3.52678 11.4523 3.58285 11.503 3.64366L13.9809 6.61718L16.7143 4.59872C16.9305 4.43902 17.1907 4.34996 17.4595 4.34371C17.7282 4.33746 17.9923 4.41432 18.2157 4.56379C18.4391 4.71327 18.6109 4.92807 18.7076 5.17885C18.8044 5.42963 18.8214 5.70417 18.7562 5.96495L16.1565 16.3636H4.84368L2.24391 5.96539C2.17866 5.70457 2.19553 5.42996 2.29223 5.1791C2.38893 4.92823 2.56074 4.71334 2.78417 4.5638C3.0076 4.41426 3.27176 4.33736 3.54054 4.34361C3.80933 4.34986 4.06963 4.43895 4.28587 4.59872L7.01921 6.61718L9.49715 3.64366C9.60686 3.51189 9.74146 3.40303 9.89326 3.3233C10.0451 3.24357 10.2111 3.19452 10.3818 3.17897C10.5526 3.16341 10.7247 3.18165 10.8884 3.23264C11.0521 3.28363 11.2042 3.36637 11.3359 3.47614H11.3355ZM13.5458 12.6508H7.45432V14.0432H13.5458V12.6508Z" fill="white" fill-opacity="0.6"/>
</svg>
